<?xml version="1.0" encoding="iso-8859-1"?>
<!-- Generator: Adobe Illustrator 19.0.0, SVG Export Plug-In . SVG Version: 6.00 Build 0)  -->
<svg version="1.1" id="Layer_1" xmlns="http://www.w3.org/2000/svg" xmlns:xlink="http://www.w3.org/1999/xlink" x="0px" y="0px"
	 viewBox="0 0 512 512" style="enable-background:new 0 0 512 512;" fill="#616161" xml:space="preserve">
<g>
	<g>
		<path d="M490.667,0H21.333C9.552,0,0,9.551,0,21.333v469.333C0,502.449,9.552,512,21.333,512h469.333
			c11.782,0,21.333-9.551,21.333-21.333V21.333C512,9.551,502.45,0,490.667,0z M469.334,469.333L469.334,469.333H42.667V42.667
			h426.667V469.333z"/>
	</g>
</g>
<g>
	<g>
		<path d="M341.333,362.667H256c-11.782,0-21.333,9.551-21.333,21.333c0,11.782,9.551,21.333,21.333,21.333h85.333
			c11.782,0,21.333-9.551,21.333-21.333C362.667,372.218,353.116,362.667,341.333,362.667z"/>
	</g>
</g>
<g>
	<g>
		<path d="M405.333,277.334H256c-11.782,0-21.333,9.551-21.333,21.333c0,11.782,9.551,21.333,21.333,21.333h149.333
			c11.782,0,21.333-9.551,21.333-21.333C426.667,286.885,417.116,277.334,405.333,277.334z"/>
	</g>
</g>
<g>
	<g>
		<path d="M362.667,192.001H256c-11.782,0-21.333,9.551-21.333,21.333c0,11.781,9.551,21.333,21.333,21.333h106.667
			c11.782,0,21.333-9.551,21.333-21.333C384,201.552,374.45,192.001,362.667,192.001z"/>
	</g>
</g>
<g>
	<g>
		<path d="M405.333,106.667H256c-11.782,0-21.333,9.551-21.333,21.333s9.551,21.333,21.333,21.333h149.333
			c11.782,0,21.333-9.551,21.333-21.333S417.116,106.667,405.333,106.667z"/>
	</g>
</g>
<g>
	<g>
		<path d="M176.914,326.248l-6.248,6.248V179.503l6.248,6.248c8.331,8.331,21.839,8.331,30.17,0s8.331-21.839,0-30.17
			l-42.667-42.667c-0.004-0.004-0.008-0.007-0.012-0.011c-0.493-0.492-1.012-0.959-1.551-1.402c-0.247-0.203-0.508-0.379-0.762-0.57
			c-0.303-0.227-0.6-0.462-0.915-0.673c-0.304-0.203-0.619-0.379-0.931-0.565c-0.286-0.171-0.565-0.35-0.859-0.507
			c-0.318-0.17-0.645-0.314-0.97-0.467c-0.306-0.145-0.608-0.298-0.922-0.428c-0.315-0.13-0.637-0.236-0.957-0.35
			c-0.337-0.121-0.669-0.25-1.013-0.354c-0.32-0.097-0.646-0.168-0.969-0.249c-0.351-0.089-0.698-0.187-1.055-0.258
			c-0.375-0.074-0.753-0.118-1.13-0.173c-0.311-0.044-0.617-0.104-0.932-0.135c-1.4-0.138-2.811-0.138-4.211,0
			c-0.316,0.031-0.622,0.09-0.933,0.135c-0.377,0.054-0.755,0.098-1.13,0.172c-0.358,0.071-0.705,0.169-1.056,0.258
			c-0.323,0.081-0.648,0.152-0.968,0.249c-0.345,0.104-0.678,0.234-1.015,0.355c-0.319,0.115-0.641,0.22-0.956,0.35
			s-0.616,0.284-0.923,0.428c-0.324,0.153-0.651,0.297-0.969,0.467c-0.294,0.158-0.574,0.337-0.86,0.508
			c-0.311,0.186-0.626,0.362-0.93,0.565c-0.316,0.211-0.613,0.447-0.917,0.674c-0.253,0.19-0.513,0.366-0.76,0.568
			c-0.539,0.443-1.058,0.909-1.551,1.402c-0.004,0.004-0.008,0.007-0.012,0.011l-42.667,42.667c-8.331,8.331-8.331,21.839,0,30.17
			s21.839,8.331,30.17,0l6.248-6.248v152.994l-6.247-6.249c-8.331-8.331-21.839-8.331-30.17,0c-8.331,8.331-8.331,21.839,0,30.17
			l42.667,42.667c0.497,0.497,1.02,0.967,1.564,1.413c0.246,0.202,0.505,0.377,0.757,0.566c0.305,0.228,0.603,0.464,0.919,0.676
			c0.303,0.203,0.617,0.378,0.928,0.564c0.287,0.171,0.567,0.351,0.862,0.51c0.317,0.169,0.642,0.313,0.965,0.465
			c0.308,0.146,0.611,0.299,0.927,0.43c0.313,0.13,0.633,0.234,0.951,0.348c0.339,0.122,0.673,0.252,1.019,0.356
			c0.318,0.096,0.641,0.167,0.963,0.248c0.353,0.089,0.702,0.188,1.061,0.259c0.372,0.074,0.747,0.117,1.122,0.171
			c0.314,0.045,0.623,0.105,0.941,0.136c0.692,0.068,1.387,0.104,2.082,0.105c0.008,0,0.015,0.001,0.023,0.001
			c0.007,0,0.014-0.001,0.021-0.001c0.696-0.001,1.391-0.037,2.084-0.105c0.318-0.031,0.627-0.091,0.94-0.136
			c0.375-0.054,0.75-0.098,1.122-0.171c0.359-0.071,0.708-0.17,1.061-0.259c0.322-0.081,0.645-0.151,0.964-0.248
			c0.346-0.105,0.68-0.234,1.018-0.356c0.318-0.114,0.639-0.219,0.953-0.349c0.316-0.131,0.618-0.284,0.926-0.43
			c0.323-0.152,0.649-0.296,0.966-0.465c0.295-0.158,0.575-0.338,0.861-0.509c0.311-0.186,0.626-0.361,0.929-0.564
			c0.316-0.211,0.613-0.447,0.917-0.674c0.253-0.19,0.513-0.365,0.759-0.568c0.544-0.446,1.067-0.916,1.563-1.413l42.667-42.667
			c8.331-8.331,8.331-21.839,0-30.17S185.245,317.917,176.914,326.248z"/>
	</g>
</g>
</svg>
